<svg width="200" height="230" viewBox="0 0 200 230" fill="none" xmlns="http://www.w3.org/2000/svg">
    <g clip-path="url(#clip0_27_57)">
    <path d="M43.6803 39.1914L70.8972 32.7904C77.6301 13.3438 96.0416 0.379135 116.62 0.594358L131.874 0.753902C141.225 5.55662 148.777 13.2482 153.408 22.6858L153.731 23.343L158.92 36.2311C166.401 54.8096 145.348 71.6557 128.95 60.7255C108.608 62.2226 88.2401 57.0576 70.9887 45.8802L69.1741 46.9903C60.0576 52.5673 48.1164 48.9143 43.6803 39.1914Z" fill="#FFD5EA"/>
    <path d="M70.8972 32.7904L43.6803 39.1914M70.8972 32.7904L94.4031 38.5479M70.8972 32.7904V32.7904C77.6301 13.3438 96.0416 0.379135 116.62 0.594358L131.874 0.753902M43.6803 39.1914V39.1914C48.1164 48.9143 60.0576 52.5673 69.1741 46.9903L70.9887 45.8802M43.6803 39.1914L70.9887 45.8802M70.9887 45.8802V45.8802C90.7176 58.6628 114.523 63.5821 137.702 59.6664L138.357 59.5558L128.289 60.2684M94.4031 38.5479L128.289 60.2684M94.4031 38.5479V38.5479C94.9308 23.7366 104.397 10.7286 118.328 5.67137L131.874 0.753902M128.289 60.2684V60.2684C144.776 72.1094 166.502 55.06 158.92 36.2311L153.731 23.343L153.408 22.6858C148.777 13.2482 141.225 5.55662 131.874 0.753902V0.753902M128.289 60.2684L131.017 49.1322C133.748 37.9813 134.539 26.4434 133.354 15.0241L131.874 0.753902" stroke="black" stroke-width="3"/>
    </g>
    <defs>
    <clipPath id="clip0_27_57">
    <rect width="200" height="230" fill="white"/>
    </clipPath>
    </defs>
    </svg>
    