<svg width="200" height="230" viewBox="0 0 200 230" fill="none" xmlns="http://www.w3.org/2000/svg">
<path d="M107.394 53.4896L81.9502 50.3973C68.4171 48.7526 60.4595 34.3469 66.2723 22.0156L69.918 14.2817C73.8652 5.90802 83.0433 1.33757 92.1045 3.23338L107.394 6.43229L117.666 3.93553C127.046 1.65562 136.715 6.40048 140.652 15.2144L143.981 22.6689C149.423 34.8552 141.629 48.8514 128.404 50.6432L107.394 53.4896Z" fill="#C93535"/>
<path d="M107.394 53.4896L81.9502 50.3973C68.4171 48.7526 60.4595 34.3469 66.2723 22.0156L69.918 14.2817C73.8652 5.90802 83.0433 1.33757 92.1045 3.23338L107.394 6.43229L117.666 3.93553C127.046 1.65562 136.715 6.40048 140.652 15.2144L143.981 22.6689C149.423 34.8552 141.629 48.8514 128.404 50.6432L107.394 53.4896Z" fill="#A91919" fill-opacity="0.2"/>
<path d="M107.394 53.4896L81.9502 50.3973C68.4171 48.7526 60.4595 34.3469 66.2723 22.0156L69.918 14.2817C73.8652 5.90802 83.0433 1.33757 92.1045 3.23338L107.394 6.43229L117.666 3.93553C127.046 1.65562 136.715 6.40048 140.652 15.2144L143.981 22.6689C149.423 34.8552 141.629 48.8514 128.404 50.6432L107.394 53.4896Z" stroke="#A91919"/>
<path d="M90.2709 12.1875L96.1302 14.7361C100.861 16.7938 106.204 16.9439 111.043 15.1548L119.069 12.1875" stroke="black"/>
<path d="M40.7369 29.548L59.5669 32.5323L106.843 43.8106L146.31 39.2709L161.056 34.8686C165.885 33.427 171.116 34.7208 174.716 38.2473C176.789 40.2779 176.196 43.754 173.567 44.9827L156.619 52.9046C153.026 54.584 149.268 55.8844 145.406 56.7848L131.723 59.9741C117.52 63.2846 102.764 63.4486 88.4913 60.4544L64.5433 55.4306L33.8384 46.3468C32.7561 46.0266 31.7535 45.4822 30.8955 44.749C26.3505 40.8645 27.4843 33.5546 32.9925 31.2295L35.4521 30.1912C37.1191 29.4876 38.9498 29.2647 40.7369 29.548Z" fill="#C93535" stroke="black"/>
</svg>
