<svg width="200" height="230" viewBox="0 0 200 230" fill="none" xmlns="http://www.w3.org/2000/svg">
<g clip-path="url(#clip0_19_326)">
<path d="M49.961 43.2282L65.7515 32.0104L68.7784 19.7832L76.4928 11.4834C83.2659 4.19616 91.531 -1.53187 100.728 -5.31272L117.618 -12.2562C120.426 -13.4103 123.535 -13.6238 126.488 -12.865C131.256 -11.6396 135.072 -8.02642 136.571 -3.31646L148.342 33.6616C148.381 33.7841 148.434 33.9017 148.5 34.0123L162 56.7452L131.323 35.8565L139.039 50.8446L151.914 69.4291L127.993 67.4101L105.413 52.7309L74.6067 49.5619L49.961 43.2282Z" fill="#2F1515"/>
<path d="M65.7515 32.0104L49.961 43.2282M65.7515 32.0104L68.7784 19.7832M65.7515 32.0104L107.864 42.8327L139.039 50.8446M49.961 43.2282L74.6067 49.5619L105.413 52.7309M49.961 43.2282L81.3624 44.8987L105.413 52.7309M105.413 52.7309L151.914 69.4291M105.413 52.7309L127.993 67.4101L151.914 69.4291M151.914 69.4291L139.039 50.8446M139.039 50.8446L131.323 35.8565M68.7784 19.7832L131.323 35.8565M68.7784 19.7832L76.4928 11.4834C83.2659 4.19616 91.531 -1.53187 100.728 -5.31272L117.618 -12.2562C120.426 -13.4103 123.535 -13.6238 126.488 -12.865V-12.865C131.256 -11.6396 135.072 -8.02642 136.571 -3.31646L148.342 33.6616C148.381 33.7841 148.434 33.9017 148.5 34.0123L162 56.7452L131.323 35.8565M131.323 35.8565L134.302 23.8234" stroke="white"/>
</g>
<defs>
<clipPath id="clip0_19_326">
<rect width="200" height="230" fill="white"/>
</clipPath>
</defs>
</svg>
