<svg width="200" height="230" viewBox="0 0 200 230" fill="none" xmlns="http://www.w3.org/2000/svg">
<path d="M68.3168 67.5878L85.1485 76.3036L68.3168 82.7193" stroke="black" stroke-width="5"/>
<path d="M130.28 82.0795L111.822 75.6795L128.085 66.5789" stroke="black" stroke-width="5"/>
<path d="M60.3059 89.8068C62.2231 87.2283 64.6061 84.6308 66.0265 81.7366C66.2152 81.352 62.6325 85.3366 61.516 86.7804C55.4156 94.6693 64.1538 88.0462 67.4566 84.9871C68.1486 84.3461 72.0885 81.6051 71.417 82.7454C70.5369 84.2398 67.6701 85.4912 66.2465 86.7804C61.7768 90.8284 72.3041 84.0832 74.3873 81.9607C75.4575 80.8703 70.0385 88.4091 68.4467 90.0309C64.0064 94.5549 74.1025 85.9131 76.1475 84.9871C81.137 82.7277 73.39 89.0278 73.3972 89.0222C78.5549 84.9349 75.1574 86.543 75.1574 89.8068" stroke="#F39ECA" stroke-width="3" stroke-linecap="round"/>
<path d="M122.682 89.8068C124.599 87.2283 126.982 84.6308 128.403 81.7366C128.591 81.352 125.009 85.3366 123.892 86.7804C117.792 94.6693 126.53 88.0462 129.833 84.9871C130.525 84.3461 134.465 81.6051 133.793 82.7454C132.913 84.2398 130.046 85.4912 128.623 86.7804C124.153 90.8284 134.68 84.0832 136.764 81.9607C137.834 80.8703 132.415 88.4091 130.823 90.0309C126.383 94.5549 136.479 85.9131 138.524 84.9871C143.513 82.7277 135.766 89.0278 135.773 89.0222C140.931 84.9349 137.534 86.543 137.534 89.8068" stroke="#F39ECA" stroke-width="3" stroke-linecap="round"/>
<path d="M93 101H106.5" stroke="black" stroke-width="5"/>
</svg>
