<svg width="200" height="230" viewBox="0 0 200 230" fill="none" xmlns="http://www.w3.org/2000/svg">
<path d="M94.4864 57C91.9151 68.6567 82.2385 78.4286 68.3981 78.4286" stroke="black" stroke-width="5" stroke-linecap="round"/>
<path d="M105.667 61.9451C113.141 71.0352 113.729 73.4835 126.165 73.4835" stroke="black" stroke-width="5" stroke-linecap="round"/>
<path d="M65 92L89.466 87.7143" stroke="black" stroke-width="5"/>
<path d="M110.534 87.7142L135 83.4285" stroke="black" stroke-width="5"/>
<path d="M85.9853 95.8726C85.9853 94.296 85.5133 91.599 86.6048 90.7312C87.1296 90.314 87.8832 90.5243 88.353 90.9085C89.9675 92.2288 88.1656 94.4938 87.2242 95.2422C85.996 96.2187 84.7465 97.7118 84.7465 94.8088C84.7465 93.0232 85.1067 90.4394 86.7287 91.5389C88.4053 92.6754 88.8314 94.191 86.9627 95.6953C86.2889 96.2376 85.7006 96.8553 84.9942 97.2121C84.5303 97.4464 84.8679 93.2852 84.9392 92.839C85.0659 92.0457 85.1357 90.9085 85.8615 90.9085C86.5364 90.9085 86.9765 91.4609 86.9765 92.5041C86.9765 95.7392 84.9355 94.7798 85.7926 92.3268C86.1358 91.3448 86.7287 92.1278 86.7287 92.8587C86.7287 93.5235 85.8719 95.8246 85.7513 94.7891C85.342 91.2742 88.5603 93.0452 86.4809 94.533C85.6822 95.1045 85.9469 93.5476 86.7149 93.4102C87.4137 93.2852 87.9676 93.1503 87.9676 94.277C87.9676 96.1435 87.3428 96.9363 85.9853 96.9363C84.9502 96.9363 84.8128 92.96 85.3659 92.3268C85.7971 91.8332 88.4136 91.4779 88.4631 92.6814C88.5268 94.2297 87.7718 96.2548 86.591 96.562C85.9798 96.721 85.4976 96.9363 84.8703 96.9363C83.9004 96.9363 84.3749 95.1641 84.2371 94.277C83.9809 92.627 83.7744 90.5539 85.4898 90.5539C86.2717 90.5539 88.4631 90.4369 88.4631 92.1495C88.4631 93.5624 88.7363 95.2847 88.0226 96.3059C87.2196 97.4551 85.9281 97.2909 84.8703 97.2909C83.128 97.2909 82.896 91.2631 84.8703 91.2631C86.2915 91.2631 86.7915 91.1953 87.7748 92.6026C88.567 93.7362 88.4825 94.6232 88.2016 96.0301C87.9132 97.4747 86.6676 98 85.7376 98C84.202 98 84.2826 97.2968 83.3975 96.0301C82.759 95.1164 82.9453 92.9345 83.5626 92.051C83.9431 91.5065 86.3825 91.1758 86.7287 91.7949C87.031 92.3358 87.5732 92.2746 87.9125 92.7602C88.3209 93.3446 88.2153 94.0105 88.2153 94.8088C88.2153 95.5127 87.8625 96.3874 87.8712 96.365C88.192 95.5386 88.4631 94.1619 88.4631 93.2132C88.4631 90.2922 84.3856 88.7502 83.5076 91.2631" stroke="black" stroke-width="3" stroke-linecap="round"/>
<path d="M128.985 91.8726C128.985 90.296 128.513 87.599 129.605 86.7312C130.13 86.314 130.883 86.5243 131.353 86.9085C132.968 88.2288 131.166 90.4938 130.224 91.2422C128.996 92.2187 127.746 93.7118 127.746 90.8088C127.746 89.0232 128.107 86.4394 129.729 87.5389C131.405 88.6754 131.831 90.191 129.963 91.6953C129.289 92.2376 128.701 92.8553 127.994 93.2121C127.53 93.4464 127.868 89.2852 127.939 88.839C128.066 88.0457 128.136 86.9085 128.861 86.9085C129.536 86.9085 129.976 87.4609 129.976 88.5041C129.976 91.7392 127.936 90.7798 128.793 88.3268C129.136 87.3448 129.729 88.1278 129.729 88.8587C129.729 89.5235 128.872 91.8246 128.751 90.7891C128.342 87.2742 131.56 89.0452 129.481 90.533C128.682 91.1045 128.947 89.5476 129.715 89.4102C130.414 89.2852 130.968 89.1503 130.968 90.277C130.968 92.1435 130.343 92.9363 128.985 92.9363C127.95 92.9363 127.813 88.96 128.366 88.3268C128.797 87.8332 131.414 87.4779 131.463 88.6814C131.527 90.2297 130.772 92.2548 129.591 92.562C128.98 92.721 128.498 92.9363 127.87 92.9363C126.9 92.9363 127.375 91.1641 127.237 90.277C126.981 88.627 126.774 86.5539 128.49 86.5539C129.272 86.5539 131.463 86.4369 131.463 88.1495C131.463 89.5624 131.736 91.2847 131.023 92.3059C130.22 93.4551 128.928 93.2909 127.87 93.2909C126.128 93.2909 125.896 87.2631 127.87 87.2631C129.292 87.2631 129.791 87.1953 130.775 88.6026C131.567 89.7362 131.482 90.6232 131.202 92.0301C130.913 93.4747 129.668 94 128.738 94C127.202 94 127.283 93.2968 126.397 92.0301C125.759 91.1164 125.945 88.9345 126.563 88.051C126.943 87.5065 129.383 87.1758 129.729 87.7949C130.031 88.3358 130.573 88.2746 130.913 88.7602C131.321 89.3446 131.215 90.0105 131.215 90.8088C131.215 91.5127 130.863 92.3874 130.871 92.365C131.192 91.5386 131.463 90.1619 131.463 89.2132C131.463 86.2922 127.386 84.7502 126.508 87.2631" stroke="black" stroke-width="3" stroke-linecap="round"/>
<path d="M92 128C95.7917 110.667 102.014 110.667 106 128" stroke="black" stroke-width="5"/>
</svg>
