<svg width="200" height="230" viewbox="0 0 200 230" fill="none" xmlns="http://www.w3.org/2000/svg">
<path d="M172.052 137.712C172.052 186.237 139.805 203.442 100.026 203.442C60.2472 203.442 28 179.098 28 137.712C28 101.41 46.1529 26 100.026 26C153.899 26 172.052 101.41 172.052 137.712Z" fill="#E67F08" fill-opacity="0.53"></path>

<g filter="url(#filter0_d_22_118)">
<path d="M70.825 62V57H65.825V62H70.825ZM77.825 62H82.825V57H77.825V62ZM77.825 68V73H82.825V68H77.825ZM70.825 68H65.825V73H70.825V68ZM70.825 67H77.825V57H70.825V67ZM72.825 62V68H82.825V62H72.825ZM77.825 63H70.825V73H77.825V63ZM75.825 68V62H65.825V68H75.825Z" fill="black"></path>
</g>
<g filter="url(#filter1_d_22_118)">
<path d="M121.175 62V57H116.175V62H121.175ZM128.175 62H133.175V57H128.175V62ZM128.175 68V73H133.175V68H128.175ZM121.175 68H116.175V73H121.175V68ZM121.175 67H128.175V57H121.175V67ZM123.175 62V68H133.175V62H123.175ZM128.175 63H121.175V73H128.175V63ZM126.175 68V62H116.175V68H126.175Z" fill="black"></path>
</g>
<path d="M79 111C89.5625 129.667 106.896 129.667 118 111" stroke="black" stroke-width="5"></path>
<path d="M51.7822 101.194C49.8999 102.665 42.7981 110.565 43.0044 110.194C44.8321 106.904 52.386 103.211 55.7266 101.75C59.2162 100.223 61.25 101.023 57.7266 104.194C54.9187 106.721 51.6696 108.751 49.0044 111.416C47.3177 113.103 52.4886 107.849 54.7822 107.194C56.5663 106.684 58.1612 105.681 59.7822 104.972C60.4757 104.669 55.1283 109.848 54.0044 110.972C52.0574 112.919 52.3872 114.532 54.8377 112.694C56.6251 111.354 60.3951 110.058 61.56 108.194C62.5664 106.584 64.088 106.947 61.2822 108.194C59.0495 109.186 58.0129 110.963 56.3933 112.583C53.6222 115.354 62.4584 107.215 66.2266 106.139C70.377 104.953 61.8593 104.04 60.7822 106.194" stroke="#B52323" stroke-width="3" stroke-linecap="round"></path>
<path d="M138.782 96.1942C136.9 97.6647 129.798 105.565 130.004 105.194C131.832 101.904 139.386 98.2113 142.727 96.7497C146.216 95.2231 148.25 96.0231 144.727 99.1942C141.919 101.721 138.67 103.751 136.004 106.416C134.318 108.103 139.489 102.849 141.782 102.194C143.566 101.684 145.161 100.681 146.782 99.972C147.476 99.6686 142.128 104.848 141.004 105.972C139.057 107.919 139.387 109.532 141.838 107.694C143.625 106.354 147.395 105.058 148.56 103.194C149.566 101.584 151.088 101.947 148.282 103.194C146.049 104.186 145.013 105.963 143.393 107.583C140.622 110.354 149.458 102.215 153.227 101.139C157.377 99.9528 148.859 99.0399 147.782 101.194" stroke="#B52323" stroke-width="3" stroke-linecap="round"></path>
<circle cx="122.5" cy="72.5" r="19.75" stroke="black" stroke-width="1.5"></circle>
<circle cx="126.5" cy="72.5" r="19.75" stroke="black" stroke-width="1.5"></circle>
<circle cx="72.5" cy="72.5" r="19.75" stroke="black" stroke-width="1.5"></circle>
<circle cx="76.5" cy="72.5" r="19.75" stroke="black" stroke-width="1.5"></circle>
<defs>
<filter id="filter0_d_22_118" x="61.825" y="57" width="25" height="24" filterUnits="userSpaceOnUse" color-interpolation-filters="sRGB">
<feFlood flood-opacity="0" result="BackgroundImageFix"></feFlood>
<feColorMatrix in="SourceAlpha" type="matrix" values="0 0 0 0 0 0 0 0 0 0 0 0 0 0 0 0 0 0 127 0" result="hardAlpha"></feColorMatrix>
<feOffset dy="4"></feOffset>
<feGaussianBlur stdDeviation="2"></feGaussianBlur>
<feComposite in2="hardAlpha" operator="out"></feComposite>
<feColorMatrix type="matrix" values="0 0 0 0 0 0 0 0 0 0 0 0 0 0 0 0 0 0 0.25 0"></feColorMatrix>
<feBlend mode="normal" in2="BackgroundImageFix" result="effect1_dropShadow_22_118"></feBlend>
<feBlend mode="normal" in="SourceGraphic" in2="effect1_dropShadow_22_118" result="shape"></feBlend>
</filter>
<filter id="filter1_d_22_118" x="112.175" y="57" width="25" height="24" filterUnits="userSpaceOnUse" color-interpolation-filters="sRGB">
<feFlood flood-opacity="0" result="BackgroundImageFix"></feFlood>
<feColorMatrix in="SourceAlpha" type="matrix" values="0 0 0 0 0 0 0 0 0 0 0 0 0 0 0 0 0 0 127 0" result="hardAlpha"></feColorMatrix>
<feOffset dy="4"></feOffset>
<feGaussianBlur stdDeviation="2"></feGaussianBlur>
<feComposite in2="hardAlpha" operator="out"></feComposite>
<feColorMatrix type="matrix" values="0 0 0 0 0 0 0 0 0 0 0 0 0 0 0 0 0 0 0.25 0"></feColorMatrix>
<feBlend mode="normal" in2="BackgroundImageFix" result="effect1_dropShadow_22_118"></feBlend>
<feBlend mode="normal" in="SourceGraphic" in2="effect1_dropShadow_22_118" result="shape"></feBlend>
</filter>
</defs>

<g clip-path="url(#clip0_19_326)">
<path d="M49.961 43.2282L65.7515 32.0104L68.7784 19.7832L76.4928 11.4834C83.2659 4.19616 91.531 -1.53187 100.728 -5.31272L117.618 -12.2562C120.426 -13.4103 123.535 -13.6238 126.488 -12.865C131.256 -11.6396 135.072 -8.02642 136.571 -3.31646L148.342 33.6616C148.381 33.7841 148.434 33.9017 148.5 34.0123L162 56.7452L131.323 35.8565L139.039 50.8446L151.914 69.4291L127.993 67.4101L105.413 52.7309L74.6067 49.5619L49.961 43.2282Z" fill="#2F1515"></path>
<path d="M65.7515 32.0104L49.961 43.2282M65.7515 32.0104L68.7784 19.7832M65.7515 32.0104L107.864 42.8327L139.039 50.8446M49.961 43.2282L74.6067 49.5619L105.413 52.7309M49.961 43.2282L81.3624 44.8987L105.413 52.7309M105.413 52.7309L151.914 69.4291M105.413 52.7309L127.993 67.4101L151.914 69.4291M151.914 69.4291L139.039 50.8446M139.039 50.8446L131.323 35.8565M68.7784 19.7832L131.323 35.8565M68.7784 19.7832L76.4928 11.4834C83.2659 4.19616 91.531 -1.53187 100.728 -5.31272L117.618 -12.2562C120.426 -13.4103 123.535 -13.6238 126.488 -12.865V-12.865C131.256 -11.6396 135.072 -8.02642 136.571 -3.31646L148.342 33.6616C148.381 33.7841 148.434 33.9017 148.5 34.0123L162 56.7452L131.323 35.8565M131.323 35.8565L134.302 23.8234" stroke="white"></path>
</g>
<defs>
<clipPath id="clip0_19_326">
<rect width="200" height="230" fill="white"></rect>
</clipPath>
</defs>
</svg>