<svg width="200" height="230" viewbox="0 0 200 230" fill="none" xmlns="http://www.w3.org/2000/svg">
<path d="M172.052 137.712C172.052 186.237 139.805 203.442 100.026 203.442C60.2472 203.442 28 179.098 28 137.712C28 101.41 46.1529 26 100.026 26C153.899 26 172.052 101.41 172.052 137.712Z" fill="#8DE2DD" fill-opacity="0.34"></path>

<path d="M94.9986 91.0022C94.9981 88.1225 95.0791 85.8583 95.2664 84.0791C95.4551 82.2865 95.7432 81.0788 96.1064 80.2631C96.4514 79.4881 96.8421 79.1117 97.2697 78.8895C97.7435 78.6433 98.4264 78.5016 99.4962 78.5013C100.557 78.5011 101.338 78.6394 101.939 78.9182C102.508 79.1815 103.011 79.614 103.452 80.3915C104.403 82.0667 104.998 85.2057 104.999 91.0003C105 96.7218 104.431 103.615 103.294 109.042C102.724 111.768 102.029 114.031 101.241 115.576C100.847 116.349 100.469 116.864 100.137 117.17C99.8192 117.462 99.6158 117.501 99.5037 117.501C99.3155 117.501 98.7151 117.315 97.9506 115.636C97.2501 114.098 96.6719 111.84 96.2218 109.108C95.3265 103.673 94.9998 96.7643 94.9986 91.0022Z" stroke="black" stroke-width="3"></path>
<path d="M74 117.151C80.7963 117.151 81.8774 116.098 86.8293 112.136C89.7347 109.812 94.9933 111.81 94.9933 115.052C94.9933 118.43 83.7768 128.698 80.298 128.698" stroke="black" stroke-width="3" stroke-linecap="round"></path>
<path d="M115.961 129.864C113.231 123.64 111.832 123.074 106.215 120.13C102.919 118.403 102.637 112.785 105.606 111.482C108.699 110.126 122.608 116.273 124.005 119.459" stroke="black" stroke-width="3" stroke-linecap="round"></path>
<path d="M64.9089 76.0258C66.8453 73.4697 69.2522 70.8948 70.6867 68.0258C70.8773 67.6446 67.2589 71.5945 66.1312 73.0258C59.9697 80.8461 68.7954 74.2805 72.1312 71.248C72.8301 70.6126 76.8094 67.8954 76.1312 69.0258C75.2423 70.5072 72.3468 71.7477 70.9089 73.0258C66.3946 77.0385 77.0271 70.352 79.1312 68.248C80.2121 67.1671 74.7388 74.6403 73.1312 76.248C68.6465 80.7327 78.8435 72.166 80.9089 71.248C85.9484 69.0083 78.1239 75.2536 78.1312 75.248C83.3405 71.1963 79.9089 72.7904 79.9089 76.0258" stroke="#F39ECA" stroke-width="3" stroke-linecap="round"></path>
<path d="M116.909 76.0258C118.845 73.4697 121.252 70.8948 122.687 68.0258C122.877 67.6446 119.259 71.5945 118.131 73.0258C111.97 80.8461 120.795 74.2805 124.131 71.248C124.83 70.6126 128.809 67.8954 128.131 69.0258C127.242 70.5072 124.347 71.7477 122.909 73.0258C118.395 77.0385 129.027 70.352 131.131 68.248C132.212 67.1671 126.739 74.6403 125.131 76.248C120.647 80.7327 130.844 72.166 132.909 71.248C137.948 69.0083 130.124 75.2536 130.131 75.248C135.34 71.1963 131.909 72.7904 131.909 76.0258" stroke="#F39ECA" stroke-width="3" stroke-linecap="round"></path>
<path d="M83 60C83.1955 67.8204 86.3028 64.5063 84.0497 60" stroke="black" stroke-width="6" stroke-linecap="round"></path>
<path d="M115 60C115.196 67.8204 118.303 64.5063 116.05 60" stroke="black" stroke-width="6" stroke-linecap="round"></path>

<path d="M107.394 53.4896L81.9502 50.3973C68.4171 48.7526 60.4595 34.3469 66.2723 22.0156L69.918 14.2817C73.8652 5.90802 83.0433 1.33757 92.1045 3.23338L107.394 6.43229L117.666 3.93553C127.046 1.65562 136.715 6.40048 140.652 15.2144L143.981 22.6689C149.423 34.8552 141.629 48.8514 128.404 50.6432L107.394 53.4896Z" fill="#C93535"></path>
<path d="M107.394 53.4896L81.9502 50.3973C68.4171 48.7526 60.4595 34.3469 66.2723 22.0156L69.918 14.2817C73.8652 5.90802 83.0433 1.33757 92.1045 3.23338L107.394 6.43229L117.666 3.93553C127.046 1.65562 136.715 6.40048 140.652 15.2144L143.981 22.6689C149.423 34.8552 141.629 48.8514 128.404 50.6432L107.394 53.4896Z" fill="#A91919" fill-opacity="0.2"></path>
<path d="M107.394 53.4896L81.9502 50.3973C68.4171 48.7526 60.4595 34.3469 66.2723 22.0156L69.918 14.2817C73.8652 5.90802 83.0433 1.33757 92.1045 3.23338L107.394 6.43229L117.666 3.93553C127.046 1.65562 136.715 6.40048 140.652 15.2144L143.981 22.6689C149.423 34.8552 141.629 48.8514 128.404 50.6432L107.394 53.4896Z" stroke="#A91919"></path>
<path d="M90.2709 12.1875L96.1302 14.7361C100.861 16.7938 106.204 16.9439 111.043 15.1548L119.069 12.1875" stroke="black"></path>
<path d="M40.7369 29.548L59.5669 32.5323L106.843 43.8106L146.31 39.2709L161.056 34.8686C165.885 33.427 171.116 34.7208 174.716 38.2473C176.789 40.2779 176.196 43.754 173.567 44.9827L156.619 52.9046C153.026 54.584 149.268 55.8844 145.406 56.7848L131.723 59.9741C117.52 63.2846 102.764 63.4486 88.4913 60.4544L64.5433 55.4306L33.8384 46.3468C32.7561 46.0266 31.7535 45.4822 30.8955 44.749C26.3505 40.8645 27.4843 33.5546 32.9925 31.2295L35.4521 30.1912C37.1191 29.4876 38.9498 29.2647 40.7369 29.548Z" fill="#C93535" stroke="black"></path>
</svg>