<svg width="200" height="230" viewbox="0 0 200 230" fill="none" xmlns="http://www.w3.org/2000/svg">
<path d="M172.052 137.712C172.052 186.237 139.805 203.442 100.026 203.442C60.2472 203.442 28 179.098 28 137.712C28 101.41 46.1529 26 100.026 26C153.899 26 172.052 101.41 172.052 137.712Z" fill="#FFD5EA"></path>

<path d="M68.3168 67.5878L85.1485 76.3036L68.3168 82.7193" stroke="black" stroke-width="5"></path>
<path d="M130.28 82.0795L111.822 75.6795L128.085 66.5789" stroke="black" stroke-width="5"></path>
<path d="M60.3059 89.8068C62.2231 87.2283 64.6061 84.6308 66.0265 81.7366C66.2152 81.352 62.6325 85.3366 61.516 86.7804C55.4156 94.6693 64.1538 88.0462 67.4566 84.9871C68.1486 84.3461 72.0885 81.6051 71.417 82.7454C70.5369 84.2398 67.6701 85.4912 66.2465 86.7804C61.7768 90.8284 72.3041 84.0832 74.3873 81.9607C75.4575 80.8703 70.0385 88.4091 68.4467 90.0309C64.0064 94.5549 74.1025 85.9131 76.1475 84.9871C81.137 82.7277 73.39 89.0278 73.3972 89.0222C78.5549 84.9349 75.1574 86.543 75.1574 89.8068" stroke="#F39ECA" stroke-width="3" stroke-linecap="round"></path>
<path d="M122.682 89.8068C124.599 87.2283 126.982 84.6308 128.403 81.7366C128.591 81.352 125.009 85.3366 123.892 86.7804C117.792 94.6693 126.53 88.0462 129.833 84.9871C130.525 84.3461 134.465 81.6051 133.793 82.7454C132.913 84.2398 130.046 85.4912 128.623 86.7804C124.153 90.8284 134.68 84.0832 136.764 81.9607C137.834 80.8703 132.415 88.4091 130.823 90.0309C126.383 94.5549 136.479 85.9131 138.524 84.9871C143.513 82.7277 135.766 89.0278 135.773 89.0222C140.931 84.9349 137.534 86.543 137.534 89.8068" stroke="#F39ECA" stroke-width="3" stroke-linecap="round"></path>
<path d="M93 101H106.5" stroke="black" stroke-width="5"></path>

    <g clip-path="url(#clip0_27_57)">
    <path d="M43.6803 39.1914L70.8972 32.7904C77.6301 13.3438 96.0416 0.379135 116.62 0.594358L131.874 0.753902C141.225 5.55662 148.777 13.2482 153.408 22.6858L153.731 23.343L158.92 36.2311C166.401 54.8096 145.348 71.6557 128.95 60.7255C108.608 62.2226 88.2401 57.0576 70.9887 45.8802L69.1741 46.9903C60.0576 52.5673 48.1164 48.9143 43.6803 39.1914Z" fill="#FFD5EA"></path>
    <path d="M70.8972 32.7904L43.6803 39.1914M70.8972 32.7904L94.4031 38.5479M70.8972 32.7904V32.7904C77.6301 13.3438 96.0416 0.379135 116.62 0.594358L131.874 0.753902M43.6803 39.1914V39.1914C48.1164 48.9143 60.0576 52.5673 69.1741 46.9903L70.9887 45.8802M43.6803 39.1914L70.9887 45.8802M70.9887 45.8802V45.8802C90.7176 58.6628 114.523 63.5821 137.702 59.6664L138.357 59.5558L128.289 60.2684M94.4031 38.5479L128.289 60.2684M94.4031 38.5479V38.5479C94.9308 23.7366 104.397 10.7286 118.328 5.67137L131.874 0.753902M128.289 60.2684V60.2684C144.776 72.1094 166.502 55.06 158.92 36.2311L153.731 23.343L153.408 22.6858C148.777 13.2482 141.225 5.55662 131.874 0.753902V0.753902M128.289 60.2684L131.017 49.1322C133.748 37.9813 134.539 26.4434 133.354 15.0241L131.874 0.753902" stroke="black" stroke-width="3"></path>
    </g>
    <defs>
    <clipPath id="clip0_27_57">
    <rect width="200" height="230" fill="white"></rect>
    </clipPath>
    </defs>
    </svg>