<svg width="200" height="230" viewbox="0 0 200 230" fill="none" xmlns="http://www.w3.org/2000/svg">
<path d="M172.052 137.712C172.052 186.237 139.805 203.442 100.026 203.442C60.2472 203.442 28 179.098 28 137.712C28 101.41 46.1529 26 100.026 26C153.899 26 172.052 101.41 172.052 137.712Z" fill="#FFD5EA"></path>

<path d="M94.9986 91.0022C94.9981 88.1225 95.0791 85.8583 95.2664 84.0791C95.4551 82.2865 95.7432 81.0788 96.1064 80.2631C96.4514 79.4881 96.8421 79.1117 97.2697 78.8895C97.7435 78.6433 98.4264 78.5016 99.4962 78.5013C100.557 78.5011 101.338 78.6394 101.939 78.9182C102.508 79.1815 103.011 79.614 103.452 80.3915C104.403 82.0667 104.998 85.2057 104.999 91.0003C105 96.7218 104.431 103.615 103.294 109.042C102.724 111.768 102.029 114.031 101.241 115.576C100.847 116.349 100.469 116.864 100.137 117.17C99.8192 117.462 99.6158 117.501 99.5037 117.501C99.3155 117.501 98.7151 117.315 97.9506 115.636C97.2501 114.098 96.6719 111.84 96.2218 109.108C95.3265 103.673 94.9998 96.7643 94.9986 91.0022Z" stroke="black" stroke-width="3"></path>
<path d="M74 117.151C80.7963 117.151 81.8774 116.098 86.8293 112.136C89.7347 109.812 94.9933 111.81 94.9933 115.052C94.9933 118.43 83.7768 128.698 80.298 128.698" stroke="black" stroke-width="3" stroke-linecap="round"></path>
<path d="M115.961 129.864C113.231 123.64 111.832 123.074 106.215 120.13C102.919 118.403 102.637 112.785 105.606 111.482C108.699 110.126 122.608 116.273 124.005 119.459" stroke="black" stroke-width="3" stroke-linecap="round"></path>
<path d="M64.9089 76.0258C66.8453 73.4697 69.2522 70.8948 70.6867 68.0258C70.8773 67.6446 67.2589 71.5945 66.1312 73.0258C59.9697 80.8461 68.7954 74.2805 72.1312 71.248C72.8301 70.6126 76.8094 67.8954 76.1312 69.0258C75.2423 70.5072 72.3468 71.7477 70.9089 73.0258C66.3946 77.0385 77.0271 70.352 79.1312 68.248C80.2121 67.1671 74.7388 74.6403 73.1312 76.248C68.6465 80.7327 78.8435 72.166 80.9089 71.248C85.9484 69.0083 78.1239 75.2536 78.1312 75.248C83.3405 71.1963 79.9089 72.7904 79.9089 76.0258" stroke="#F39ECA" stroke-width="3" stroke-linecap="round"></path>
<path d="M116.909 76.0258C118.845 73.4697 121.252 70.8948 122.687 68.0258C122.877 67.6446 119.259 71.5945 118.131 73.0258C111.97 80.8461 120.795 74.2805 124.131 71.248C124.83 70.6126 128.809 67.8954 128.131 69.0258C127.242 70.5072 124.347 71.7477 122.909 73.0258C118.395 77.0385 129.027 70.352 131.131 68.248C132.212 67.1671 126.739 74.6403 125.131 76.248C120.647 80.7327 130.844 72.166 132.909 71.248C137.948 69.0083 130.124 75.2536 130.131 75.248C135.34 71.1963 131.909 72.7904 131.909 76.0258" stroke="#F39ECA" stroke-width="3" stroke-linecap="round"></path>
<path d="M83 60C83.1955 67.8204 86.3028 64.5063 84.0497 60" stroke="black" stroke-width="6" stroke-linecap="round"></path>
<path d="M115 60C115.196 67.8204 118.303 64.5063 116.05 60" stroke="black" stroke-width="6" stroke-linecap="round"></path>

    <g clip-path="url(#clip0_27_57)">
    <path d="M43.6803 39.1914L70.8972 32.7904C77.6301 13.3438 96.0416 0.379135 116.62 0.594358L131.874 0.753902C141.225 5.55662 148.777 13.2482 153.408 22.6858L153.731 23.343L158.92 36.2311C166.401 54.8096 145.348 71.6557 128.95 60.7255C108.608 62.2226 88.2401 57.0576 70.9887 45.8802L69.1741 46.9903C60.0576 52.5673 48.1164 48.9143 43.6803 39.1914Z" fill="#FFD5EA"></path>
    <path d="M70.8972 32.7904L43.6803 39.1914M70.8972 32.7904L94.4031 38.5479M70.8972 32.7904V32.7904C77.6301 13.3438 96.0416 0.379135 116.62 0.594358L131.874 0.753902M43.6803 39.1914V39.1914C48.1164 48.9143 60.0576 52.5673 69.1741 46.9903L70.9887 45.8802M43.6803 39.1914L70.9887 45.8802M70.9887 45.8802V45.8802C90.7176 58.6628 114.523 63.5821 137.702 59.6664L138.357 59.5558L128.289 60.2684M94.4031 38.5479L128.289 60.2684M94.4031 38.5479V38.5479C94.9308 23.7366 104.397 10.7286 118.328 5.67137L131.874 0.753902M128.289 60.2684V60.2684C144.776 72.1094 166.502 55.06 158.92 36.2311L153.731 23.343L153.408 22.6858C148.777 13.2482 141.225 5.55662 131.874 0.753902V0.753902M128.289 60.2684L131.017 49.1322C133.748 37.9813 134.539 26.4434 133.354 15.0241L131.874 0.753902" stroke="black" stroke-width="3"></path>
    </g>
    <defs>
    <clipPath id="clip0_27_57">
    <rect width="200" height="230" fill="white"></rect>
    </clipPath>
    </defs>
    </svg>