<svg width="200" height="230" viewbox="0 0 200 230" fill="none" xmlns="http://www.w3.org/2000/svg">
<path d="M172.052 137.712C172.052 186.237 139.805 203.442 100.026 203.442C60.2472 203.442 28 179.098 28 137.712C28 101.41 46.1529 26 100.026 26C153.899 26 172.052 101.41 172.052 137.712Z" fill="#E67F08" fill-opacity="0.53"></path>

<path d="M68.3168 67.5878L85.1485 76.3036L68.3168 82.7193" stroke="black" stroke-width="5"></path>
<path d="M130.28 82.0795L111.822 75.6795L128.085 66.5789" stroke="black" stroke-width="5"></path>
<path d="M60.3059 89.8068C62.2231 87.2283 64.6061 84.6308 66.0265 81.7366C66.2152 81.352 62.6325 85.3366 61.516 86.7804C55.4156 94.6693 64.1538 88.0462 67.4566 84.9871C68.1486 84.3461 72.0885 81.6051 71.417 82.7454C70.5369 84.2398 67.6701 85.4912 66.2465 86.7804C61.7768 90.8284 72.3041 84.0832 74.3873 81.9607C75.4575 80.8703 70.0385 88.4091 68.4467 90.0309C64.0064 94.5549 74.1025 85.9131 76.1475 84.9871C81.137 82.7277 73.39 89.0278 73.3972 89.0222C78.5549 84.9349 75.1574 86.543 75.1574 89.8068" stroke="#F39ECA" stroke-width="3" stroke-linecap="round"></path>
<path d="M122.682 89.8068C124.599 87.2283 126.982 84.6308 128.403 81.7366C128.591 81.352 125.009 85.3366 123.892 86.7804C117.792 94.6693 126.53 88.0462 129.833 84.9871C130.525 84.3461 134.465 81.6051 133.793 82.7454C132.913 84.2398 130.046 85.4912 128.623 86.7804C124.153 90.8284 134.68 84.0832 136.764 81.9607C137.834 80.8703 132.415 88.4091 130.823 90.0309C126.383 94.5549 136.479 85.9131 138.524 84.9871C143.513 82.7277 135.766 89.0278 135.773 89.0222C140.931 84.9349 137.534 86.543 137.534 89.8068" stroke="#F39ECA" stroke-width="3" stroke-linecap="round"></path>
<path d="M93 101H106.5" stroke="black" stroke-width="5"></path>

<path d="M107.394 53.4896L81.9502 50.3973C68.4171 48.7526 60.4595 34.3469 66.2723 22.0156L69.918 14.2817C73.8652 5.90802 83.0433 1.33757 92.1045 3.23338L107.394 6.43229L117.666 3.93553C127.046 1.65562 136.715 6.40048 140.652 15.2144L143.981 22.6689C149.423 34.8552 141.629 48.8514 128.404 50.6432L107.394 53.4896Z" fill="#C93535"></path>
<path d="M107.394 53.4896L81.9502 50.3973C68.4171 48.7526 60.4595 34.3469 66.2723 22.0156L69.918 14.2817C73.8652 5.90802 83.0433 1.33757 92.1045 3.23338L107.394 6.43229L117.666 3.93553C127.046 1.65562 136.715 6.40048 140.652 15.2144L143.981 22.6689C149.423 34.8552 141.629 48.8514 128.404 50.6432L107.394 53.4896Z" fill="#A91919" fill-opacity="0.2"></path>
<path d="M107.394 53.4896L81.9502 50.3973C68.4171 48.7526 60.4595 34.3469 66.2723 22.0156L69.918 14.2817C73.8652 5.90802 83.0433 1.33757 92.1045 3.23338L107.394 6.43229L117.666 3.93553C127.046 1.65562 136.715 6.40048 140.652 15.2144L143.981 22.6689C149.423 34.8552 141.629 48.8514 128.404 50.6432L107.394 53.4896Z" stroke="#A91919"></path>
<path d="M90.2709 12.1875L96.1302 14.7361C100.861 16.7938 106.204 16.9439 111.043 15.1548L119.069 12.1875" stroke="black"></path>
<path d="M40.7369 29.548L59.5669 32.5323L106.843 43.8106L146.31 39.2709L161.056 34.8686C165.885 33.427 171.116 34.7208 174.716 38.2473C176.789 40.2779 176.196 43.754 173.567 44.9827L156.619 52.9046C153.026 54.584 149.268 55.8844 145.406 56.7848L131.723 59.9741C117.52 63.2846 102.764 63.4486 88.4913 60.4544L64.5433 55.4306L33.8384 46.3468C32.7561 46.0266 31.7535 45.4822 30.8955 44.749C26.3505 40.8645 27.4843 33.5546 32.9925 31.2295L35.4521 30.1912C37.1191 29.4876 38.9498 29.2647 40.7369 29.548Z" fill="#C93535" stroke="black"></path>
</svg>