<svg width="200" height="230" viewbox="0 0 200 230" fill="none" xmlns="http://www.w3.org/2000/svg">
<path d="M172.052 137.712C172.052 186.237 139.805 203.442 100.026 203.442C60.2472 203.442 28 179.098 28 137.712C28 101.41 46.1529 26 100.026 26C153.899 26 172.052 101.41 172.052 137.712Z" fill="#F8C890" fill-opacity="0.34"></path>

<path d="M68.3168 67.5878L85.1485 76.3036L68.3168 82.7193" stroke="black" stroke-width="5"></path>
<path d="M130.28 82.0795L111.822 75.6795L128.085 66.5789" stroke="black" stroke-width="5"></path>
<path d="M60.3059 89.8068C62.2231 87.2283 64.6061 84.6308 66.0265 81.7366C66.2152 81.352 62.6325 85.3366 61.516 86.7804C55.4156 94.6693 64.1538 88.0462 67.4566 84.9871C68.1486 84.3461 72.0885 81.6051 71.417 82.7454C70.5369 84.2398 67.6701 85.4912 66.2465 86.7804C61.7768 90.8284 72.3041 84.0832 74.3873 81.9607C75.4575 80.8703 70.0385 88.4091 68.4467 90.0309C64.0064 94.5549 74.1025 85.9131 76.1475 84.9871C81.137 82.7277 73.39 89.0278 73.3972 89.0222C78.5549 84.9349 75.1574 86.543 75.1574 89.8068" stroke="#F39ECA" stroke-width="3" stroke-linecap="round"></path>
<path d="M122.682 89.8068C124.599 87.2283 126.982 84.6308 128.403 81.7366C128.591 81.352 125.009 85.3366 123.892 86.7804C117.792 94.6693 126.53 88.0462 129.833 84.9871C130.525 84.3461 134.465 81.6051 133.793 82.7454C132.913 84.2398 130.046 85.4912 128.623 86.7804C124.153 90.8284 134.68 84.0832 136.764 81.9607C137.834 80.8703 132.415 88.4091 130.823 90.0309C126.383 94.5549 136.479 85.9131 138.524 84.9871C143.513 82.7277 135.766 89.0278 135.773 89.0222C140.931 84.9349 137.534 86.543 137.534 89.8068" stroke="#F39ECA" stroke-width="3" stroke-linecap="round"></path>
<path d="M93 101H106.5" stroke="black" stroke-width="5"></path>

<g clip-path="url(#clip0_19_326)">
<path d="M49.961 43.2282L65.7515 32.0104L68.7784 19.7832L76.4928 11.4834C83.2659 4.19616 91.531 -1.53187 100.728 -5.31272L117.618 -12.2562C120.426 -13.4103 123.535 -13.6238 126.488 -12.865C131.256 -11.6396 135.072 -8.02642 136.571 -3.31646L148.342 33.6616C148.381 33.7841 148.434 33.9017 148.5 34.0123L162 56.7452L131.323 35.8565L139.039 50.8446L151.914 69.4291L127.993 67.4101L105.413 52.7309L74.6067 49.5619L49.961 43.2282Z" fill="#2F1515"></path>
<path d="M65.7515 32.0104L49.961 43.2282M65.7515 32.0104L68.7784 19.7832M65.7515 32.0104L107.864 42.8327L139.039 50.8446M49.961 43.2282L74.6067 49.5619L105.413 52.7309M49.961 43.2282L81.3624 44.8987L105.413 52.7309M105.413 52.7309L151.914 69.4291M105.413 52.7309L127.993 67.4101L151.914 69.4291M151.914 69.4291L139.039 50.8446M139.039 50.8446L131.323 35.8565M68.7784 19.7832L131.323 35.8565M68.7784 19.7832L76.4928 11.4834C83.2659 4.19616 91.531 -1.53187 100.728 -5.31272L117.618 -12.2562C120.426 -13.4103 123.535 -13.6238 126.488 -12.865V-12.865C131.256 -11.6396 135.072 -8.02642 136.571 -3.31646L148.342 33.6616C148.381 33.7841 148.434 33.9017 148.5 34.0123L162 56.7452L131.323 35.8565M131.323 35.8565L134.302 23.8234" stroke="white"></path>
</g>
<defs>
<clipPath id="clip0_19_326">
<rect width="200" height="230" fill="white"></rect>
</clipPath>
</defs>
</svg>