<svg width="200" height="230" viewbox="0 0 200 230" fill="none" xmlns="http://www.w3.org/2000/svg">
<path d="M172.052 137.712C172.052 186.237 139.805 203.442 100.026 203.442C60.2472 203.442 28 179.098 28 137.712C28 101.41 46.1529 26 100.026 26C153.899 26 172.052 101.41 172.052 137.712Z" fill="#F8C890" fill-opacity="0.34"></path>

<path d="M102.486 53C99.9151 64.6567 90.2385 74.4286 76.3981 74.4286" stroke="black" stroke-width="5" stroke-linecap="round"></path>
<path d="M113.667 57.9451C121.141 67.0352 121.729 69.4835 134.165 69.4835" stroke="black" stroke-width="5" stroke-linecap="round"></path>
<path d="M73 88L97.466 83.7143" stroke="black" stroke-width="5"></path>
<path d="M118.534 83.7142L143 79.4285" stroke="black" stroke-width="5"></path>
<path d="M78.9853 95.8726C78.9853 94.296 78.5133 91.599 79.6048 90.7312C80.1296 90.314 80.8832 90.5243 81.353 90.9085C82.9675 92.2288 81.1656 94.4938 80.2242 95.2422C78.996 96.2187 77.7465 97.7118 77.7465 94.8088C77.7465 93.0232 78.1067 90.4394 79.7287 91.5389C81.4053 92.6754 81.8314 94.191 79.9627 95.6953C79.2889 96.2376 78.7006 96.8553 77.9942 97.2121C77.5303 97.4464 77.8679 93.2852 77.9392 92.839C78.0659 92.0457 78.1357 90.9085 78.8615 90.9085C79.5364 90.9085 79.9765 91.4609 79.9765 92.5041C79.9765 95.7392 77.9355 94.7798 78.7926 92.3268C79.1358 91.3448 79.7287 92.1278 79.7287 92.8587C79.7287 93.5235 78.8719 95.8246 78.7513 94.7891C78.342 91.2742 81.5603 93.0452 79.4809 94.533C78.6822 95.1045 78.9469 93.5476 79.7149 93.4102C80.4137 93.2852 80.9676 93.1503 80.9676 94.277C80.9676 96.1435 80.3428 96.9363 78.9853 96.9363C77.9502 96.9363 77.8128 92.96 78.3659 92.3268C78.7971 91.8332 81.4136 91.4779 81.4631 92.6814C81.5268 94.2297 80.7718 96.2548 79.591 96.562C78.9798 96.721 78.4976 96.9363 77.8703 96.9363C76.9004 96.9363 77.3749 95.1641 77.2371 94.277C76.9809 92.627 76.7744 90.5539 78.4898 90.5539C79.2717 90.5539 81.4631 90.4369 81.4631 92.1495C81.4631 93.5624 81.7363 95.2847 81.0226 96.3059C80.2196 97.4551 78.9281 97.2909 77.8703 97.2909C76.128 97.2909 75.896 91.2631 77.8703 91.2631C79.2915 91.2631 79.7915 91.1953 80.7748 92.6026C81.567 93.7362 81.4825 94.6232 81.2016 96.0301C80.9132 97.4747 79.6676 98 78.7376 98C77.202 98 77.2826 97.2968 76.3975 96.0301C75.759 95.1164 75.9453 92.9345 76.5626 92.051C76.9431 91.5065 79.3825 91.1758 79.7287 91.7949C80.031 92.3358 80.5732 92.2746 80.9125 92.7602C81.3209 93.3446 81.2153 94.0105 81.2153 94.8088C81.2153 95.5127 80.8625 96.3874 80.8712 96.365C81.192 95.5386 81.4631 94.1619 81.4631 93.2132C81.4631 90.2922 77.3856 88.7502 76.5076 91.2631" stroke="black" stroke-width="3" stroke-linecap="round"></path>
<path d="M123.985 91.8726C123.985 90.296 123.513 87.599 124.605 86.7312C125.13 86.314 125.883 86.5243 126.353 86.9085C127.968 88.2288 126.166 90.4938 125.224 91.2422C123.996 92.2187 122.746 93.7118 122.746 90.8088C122.746 89.0232 123.107 86.4394 124.729 87.5389C126.405 88.6754 126.831 90.191 124.963 91.6953C124.289 92.2376 123.701 92.8553 122.994 93.2121C122.53 93.4464 122.868 89.2852 122.939 88.839C123.066 88.0457 123.136 86.9085 123.861 86.9085C124.536 86.9085 124.976 87.4609 124.976 88.5041C124.976 91.7392 122.936 90.7798 123.793 88.3268C124.136 87.3448 124.729 88.1278 124.729 88.8587C124.729 89.5235 123.872 91.8246 123.751 90.7891C123.342 87.2742 126.56 89.0452 124.481 90.533C123.682 91.1045 123.947 89.5476 124.715 89.4102C125.414 89.2852 125.968 89.1503 125.968 90.277C125.968 92.1435 125.343 92.9363 123.985 92.9363C122.95 92.9363 122.813 88.96 123.366 88.3268C123.797 87.8332 126.414 87.4779 126.463 88.6814C126.527 90.2297 125.772 92.2548 124.591 92.562C123.98 92.721 123.498 92.9363 122.87 92.9363C121.9 92.9363 122.375 91.1641 122.237 90.277C121.981 88.627 121.774 86.5539 123.49 86.5539C124.272 86.5539 126.463 86.4369 126.463 88.1495C126.463 89.5624 126.736 91.2847 126.023 92.3059C125.22 93.4551 123.928 93.2909 122.87 93.2909C121.128 93.2909 120.896 87.2631 122.87 87.2631C124.292 87.2631 124.791 87.1953 125.775 88.6026C126.567 89.7362 126.482 90.6232 126.202 92.0301C125.913 93.4747 124.668 94 123.738 94C122.202 94 122.283 93.2968 121.397 92.0301C120.759 91.1164 120.945 88.9345 121.563 88.051C121.943 87.5065 124.383 87.1758 124.729 87.7949C125.031 88.3358 125.573 88.2746 125.913 88.7602C126.321 89.3446 126.215 90.0105 126.215 90.8088C126.215 91.5127 125.863 92.3874 125.871 92.365C126.192 91.5386 126.463 90.1619 126.463 89.2132C126.463 86.2922 122.386 84.7502 121.508 87.2631" stroke="black" stroke-width="3" stroke-linecap="round"></path>
<path d="M105 122C108.792 104.667 115.014 104.667 119 122" stroke="black" stroke-width="5"></path>

<g clip-path="url(#clip0_19_326)">
<path d="M49.961 43.2282L65.7515 32.0104L68.7784 19.7832L76.4928 11.4834C83.2659 4.19616 91.531 -1.53187 100.728 -5.31272L117.618 -12.2562C120.426 -13.4103 123.535 -13.6238 126.488 -12.865C131.256 -11.6396 135.072 -8.02642 136.571 -3.31646L148.342 33.6616C148.381 33.7841 148.434 33.9017 148.5 34.0123L162 56.7452L131.323 35.8565L139.039 50.8446L151.914 69.4291L127.993 67.4101L105.413 52.7309L74.6067 49.5619L49.961 43.2282Z" fill="#2F1515"></path>
<path d="M65.7515 32.0104L49.961 43.2282M65.7515 32.0104L68.7784 19.7832M65.7515 32.0104L107.864 42.8327L139.039 50.8446M49.961 43.2282L74.6067 49.5619L105.413 52.7309M49.961 43.2282L81.3624 44.8987L105.413 52.7309M105.413 52.7309L151.914 69.4291M105.413 52.7309L127.993 67.4101L151.914 69.4291M151.914 69.4291L139.039 50.8446M139.039 50.8446L131.323 35.8565M68.7784 19.7832L131.323 35.8565M68.7784 19.7832L76.4928 11.4834C83.2659 4.19616 91.531 -1.53187 100.728 -5.31272L117.618 -12.2562C120.426 -13.4103 123.535 -13.6238 126.488 -12.865V-12.865C131.256 -11.6396 135.072 -8.02642 136.571 -3.31646L148.342 33.6616C148.381 33.7841 148.434 33.9017 148.5 34.0123L162 56.7452L131.323 35.8565M131.323 35.8565L134.302 23.8234" stroke="white"></path>
</g>
<defs>
<clipPath id="clip0_19_326">
<rect width="200" height="230" fill="white"></rect>
</clipPath>
</defs>
</svg>