<svg width="200" height="230" viewbox="0 0 200 230" fill="none" xmlns="http://www.w3.org/2000/svg">
<g style="mix-blend-mode:darken">
<path d="M172.052 137.712C172.052 186.237 139.805 203.442 100.026 203.442C60.2472 203.442 28 179.098 28 137.712C28 101.41 46.1529 26 100.026 26C153.899 26 172.052 101.41 172.052 137.712Z" fill="#EFB26A" fill-opacity="0.34"></path>
</g>

<path d="M68.3168 67.5878L85.1485 76.3036L68.3168 82.7193" stroke="black" stroke-width="5"></path>
<path d="M130.28 82.0795L111.822 75.6795L128.085 66.5789" stroke="black" stroke-width="5"></path>
<path d="M60.3059 89.8068C62.2231 87.2283 64.6061 84.6308 66.0265 81.7366C66.2152 81.352 62.6325 85.3366 61.516 86.7804C55.4156 94.6693 64.1538 88.0462 67.4566 84.9871C68.1486 84.3461 72.0885 81.6051 71.417 82.7454C70.5369 84.2398 67.6701 85.4912 66.2465 86.7804C61.7768 90.8284 72.3041 84.0832 74.3873 81.9607C75.4575 80.8703 70.0385 88.4091 68.4467 90.0309C64.0064 94.5549 74.1025 85.9131 76.1475 84.9871C81.137 82.7277 73.39 89.0278 73.3972 89.0222C78.5549 84.9349 75.1574 86.543 75.1574 89.8068" stroke="#F39ECA" stroke-width="3" stroke-linecap="round"></path>
<path d="M122.682 89.8068C124.599 87.2283 126.982 84.6308 128.403 81.7366C128.591 81.352 125.009 85.3366 123.892 86.7804C117.792 94.6693 126.53 88.0462 129.833 84.9871C130.525 84.3461 134.465 81.6051 133.793 82.7454C132.913 84.2398 130.046 85.4912 128.623 86.7804C124.153 90.8284 134.68 84.0832 136.764 81.9607C137.834 80.8703 132.415 88.4091 130.823 90.0309C126.383 94.5549 136.479 85.9131 138.524 84.9871C143.513 82.7277 135.766 89.0278 135.773 89.0222C140.931 84.9349 137.534 86.543 137.534 89.8068" stroke="#F39ECA" stroke-width="3" stroke-linecap="round"></path>
<path d="M93 101H106.5" stroke="black" stroke-width="5"></path>

<path d="M51.7079 80.5742L49.3952 84.2073C48.9246 84.9466 49.1156 85.9666 49.822 86.4854V86.4854C50.3428 86.8679 51.0219 86.8817 51.5392 86.5204L55.7748 83.5613" stroke="black" stroke-width="2"></path>
<path d="M48.3 92.2291L45.9873 95.8622C45.5166 96.6015 45.7077 97.6215 46.4141 98.1403V98.1403C46.9348 98.5228 47.614 98.5366 48.1312 98.1753L52.3669 95.2163" stroke="black" stroke-width="2"></path>
<path d="M41.1649 78L38.8522 81.6331C38.3815 82.3724 38.5726 83.3923 39.279 83.9112V83.9112C39.7998 84.2937 40.4789 84.3075 40.9961 83.9461L45.2318 80.9871" stroke="black" stroke-width="2"></path>
</svg>