<svg width="200" height="230" viewbox="0 0 200 230" fill="none" xmlns="http://www.w3.org/2000/svg">
<g style="mix-blend-mode:darken">
<path d="M172.052 137.712C172.052 186.237 139.805 203.442 100.026 203.442C60.2472 203.442 28 179.098 28 137.712C28 101.41 46.1529 26 100.026 26C153.899 26 172.052 101.41 172.052 137.712Z" fill="#EFB26A" fill-opacity="0.34"></path>
</g>

<g filter="url(#filter0_d_22_119)">
<path d="M70.825 90V95H65.825V90H70.825ZM77.825 90H82.825V95H77.825V90ZM77.825 84V79H82.825V84H77.825ZM70.825 84H65.825V79H70.825V84ZM70.825 85H77.825V95H70.825V85ZM72.825 90V84H82.825V90H72.825ZM77.825 89H70.825V79H77.825V89ZM75.825 84V90H65.825V84H75.825Z" fill="black"></path>
</g>
<g filter="url(#filter1_d_22_119)">
<path d="M121.175 90V95H116.175V90H121.175ZM128.175 90H133.175V95H128.175V90ZM128.175 84V79H133.175V84H128.175ZM121.175 84H116.175V79H121.175V84ZM121.175 85H128.175V95H121.175V85ZM123.175 90V84H133.175V90H123.175ZM128.175 89H121.175V79H128.175V89ZM126.175 84V90H116.175V84H126.175Z" fill="black"></path>
</g>
<path d="M91 115C95.6042 101.667 103.16 101.667 108 115" stroke="black" stroke-width="3"></path>
<circle cx="122.5" cy="78.5" r="19.75" stroke="black" stroke-width="1.5"></circle>
<circle cx="126.5" cy="78.5" r="19.75" stroke="black" stroke-width="1.5"></circle>
<circle cx="72.5" cy="78.5" r="19.75" stroke="black" stroke-width="1.5"></circle>
<circle cx="76.5" cy="78.5" r="19.75" stroke="black" stroke-width="1.5"></circle>
<defs>
<filter id="filter0_d_22_119" x="61.825" y="79" width="25" height="24" filterUnits="userSpaceOnUse" color-interpolation-filters="sRGB">
<feFlood flood-opacity="0" result="BackgroundImageFix"></feFlood>
<feColorMatrix in="SourceAlpha" type="matrix" values="0 0 0 0 0 0 0 0 0 0 0 0 0 0 0 0 0 0 127 0" result="hardAlpha"></feColorMatrix>
<feOffset dy="4"></feOffset>
<feGaussianBlur stdDeviation="2"></feGaussianBlur>
<feComposite in2="hardAlpha" operator="out"></feComposite>
<feColorMatrix type="matrix" values="0 0 0 0 0 0 0 0 0 0 0 0 0 0 0 0 0 0 0.25 0"></feColorMatrix>
<feBlend mode="normal" in2="BackgroundImageFix" result="effect1_dropShadow_22_119"></feBlend>
<feBlend mode="normal" in="SourceGraphic" in2="effect1_dropShadow_22_119" result="shape"></feBlend>
</filter>
<filter id="filter1_d_22_119" x="112.175" y="79" width="25" height="24" filterUnits="userSpaceOnUse" color-interpolation-filters="sRGB">
<feFlood flood-opacity="0" result="BackgroundImageFix"></feFlood>
<feColorMatrix in="SourceAlpha" type="matrix" values="0 0 0 0 0 0 0 0 0 0 0 0 0 0 0 0 0 0 127 0" result="hardAlpha"></feColorMatrix>
<feOffset dy="4"></feOffset>
<feGaussianBlur stdDeviation="2"></feGaussianBlur>
<feComposite in2="hardAlpha" operator="out"></feComposite>
<feColorMatrix type="matrix" values="0 0 0 0 0 0 0 0 0 0 0 0 0 0 0 0 0 0 0.25 0"></feColorMatrix>
<feBlend mode="normal" in2="BackgroundImageFix" result="effect1_dropShadow_22_119"></feBlend>
<feBlend mode="normal" in="SourceGraphic" in2="effect1_dropShadow_22_119" result="shape"></feBlend>
</filter>
</defs>

<path d="M51.7079 80.5742L49.3952 84.2073C48.9246 84.9466 49.1156 85.9666 49.822 86.4854V86.4854C50.3428 86.8679 51.0219 86.8817 51.5392 86.5204L55.7748 83.5613" stroke="black" stroke-width="2"></path>
<path d="M48.3 92.2291L45.9873 95.8622C45.5166 96.6015 45.7077 97.6215 46.4141 98.1403V98.1403C46.9348 98.5228 47.614 98.5366 48.1312 98.1753L52.3669 95.2163" stroke="black" stroke-width="2"></path>
<path d="M41.1649 78L38.8522 81.6331C38.3815 82.3724 38.5726 83.3923 39.279 83.9112V83.9112C39.7998 84.2937 40.4789 84.3075 40.9961 83.9461L45.2318 80.9871" stroke="black" stroke-width="2"></path>
</svg>